<svg width="1920" height="467" viewBox="0 0 1920 467" fill="none" xmlns="http://www.w3.org/2000/svg">
<path d="M1920 168.581C1920 168.914 1920 169.248 1920 169.581C1863.11 172.117 1798.78 184.785 1763.05 232.791C1736.06 270.605 1744.45 321.143 1761.24 362.02C1768.4 380.055 1774.52 398.371 1775.07 417.454C1776.6 436.526 1764.53 456.321 1745.44 461.384C1708.36 471.86 1669.29 463.632 1632.02 458.174C1556.95 446.013 1481.83 426.532 1405.54 432.174C1343.48 437.276 1279.41 431.384 1221.28 408.318C1206.96 402.238 1192.68 394.8 1181.73 383.777C1169.94 373.178 1166.46 354.084 1177.2 341.569C1197.34 317.382 1228.56 306.81 1258.01 296.495C1323.39 276.783 1378.55 221.056 1388.3 152.465C1393.69 118.834 1390.12 83.3618 1375.75 52.281C1362.51 21.9323 1330.82 -6.8613 1295.78 2.73685C1234.12 22.5171 1213.74 93.4638 1160.45 126.271C1043.64 204.689 895.262 186.883 761.669 169.107C653.024 152.826 538.433 152.931 434.774 192.361C383.948 212.383 333.513 242.31 304.765 289.897C290.93 312.138 284.803 348.783 311.502 363.301C336.594 376.439 366.059 369.919 392.121 361.971C408.784 356.486 424.312 350.572 437.594 339.965C451.769 330.034 455.285 309.799 445.493 295.402C427.468 266.907 398.101 247.44 371.455 227.352C344.189 207.429 316.151 188.295 290.49 166.461C267.069 145.214 233.121 116.851 247.385 81.9529C251.468 73.1806 254.351 62.8332 249.175 54.4737C243.914 46.3434 233.731 43.3799 224.415 41.7112C205.144 38.6915 185.87 40.3522 166.607 42.5736C108.671 50.1452 51.6859 65.4553 -3.84691 82.5773C-3.94897 82.2599 -4.05103 81.9426 -4.15309 81.6253C51.461 64.5484 108.465 49.2953 166.509 41.7679C185.815 39.564 205.118 37.9084 224.542 40.9684C233.929 42.6734 244.293 45.6193 249.79 54.0894C255.171 62.8449 252.128 73.4115 248.016 82.2496C233.906 116.365 267.454 144.784 290.884 166.001C316.488 187.826 344.505 206.982 371.761 226.932C398.403 247.06 427.761 266.515 445.875 295.184C455.757 309.652 452.145 330.335 437.851 340.276C424.477 350.937 408.922 356.837 392.233 362.321C366.123 370.255 336.61 376.808 311.345 363.572C284.427 348.892 290.67 312.018 304.537 289.766C333.372 242.106 383.852 212.208 434.711 192.198C538.432 152.802 653.029 152.744 761.677 169.054C895.259 186.865 1043.64 204.689 1160.45 126.271C1213.74 93.463 1234.11 22.5175 1295.78 2.72577C1330.83 -6.87915 1362.52 21.9174 1375.77 52.2693C1390.16 83.3536 1393.73 118.831 1388.35 152.474C1378.62 221.085 1323.45 276.861 1258.05 296.606C1228.61 306.925 1197.39 317.53 1177.32 341.663C1166.64 354.147 1170.11 373.073 1181.86 383.652C1192.79 394.639 1207.05 402.065 1221.36 408.131C1279.45 431.148 1343.51 437.003 1405.51 431.863C1481.88 426.168 1557.04 445.609 1632.09 457.705C1669.34 463.14 1708.46 471.289 1745.26 460.843C1764.17 455.765 1775.94 436.406 1774.45 417.465C1773.89 398.531 1767.77 380.261 1760.61 362.273C1743.76 321.34 1735.2 270.529 1762.39 232.328C1798.41 183.888 1862.88 171.212 1920 168.581Z" fill="#F5720D"/>
</svg>
