<svg width="1920" height="579" viewBox="0 0 1920 579" fill="none" xmlns="http://www.w3.org/2000/svg">
<path d="M0.00012207 207.565C0.00012207 208.232 0.00012207 208.898 0.00012207 209.565C61.0309 211.935 129.729 234.827 158.967 292.192C183.398 340.476 174.634 397.682 158.446 447.927C147.798 485.257 131.203 531.207 160.757 562.941C194.624 588.173 239.342 575.547 277.651 569.529C355.926 554.578 434.117 527.963 514.441 535.141C579.738 541.785 648.229 533.175 706.289 501.361C733.785 486.956 763.833 452.544 742.394 421.778C723.839 394.113 692.315 379.518 662.018 366.627C587.701 338.241 539.504 262.869 531.392 185.284C526.79 146.466 529.7 106.411 542.228 69.2852C553.725 34.4626 582.234 -10.3213 624.215 2.15674C681.05 25.0002 696.406 91.74 737.281 133.041C841.752 251.569 1016.09 233.725 1158.34 208.619C1271.89 187.197 1395 189.418 1498.81 244.413C1549.4 271.619 1596.15 312.302 1618.52 366.427C1628.86 392.245 1633.9 427.426 1610.96 447.492C1587.19 466.214 1554.41 458.033 1527.96 447.796C1509.95 440.476 1492.62 431.938 1480.01 417.744C1466.76 403.905 1466.15 381.837 1474.85 365.056C1492.01 331.149 1522.13 305.688 1549.77 280.069C1577.97 254.538 1607.13 229.89 1633.05 201.902C1657.3 174.806 1686.76 139.147 1672.96 100.385C1669.55 91.1631 1667.32 82.1592 1668.98 72.9576C1670.53 63.6647 1678.03 56.6427 1686.73 53.4342C1704.48 47.0045 1723.86 48.4641 1742.61 50.4531C1804.87 58.8011 1865.14 79.3018 1923.63 101.564C1923.88 100.945 1924.12 100.326 1924.37 99.7066C1865.68 77.5141 1805.39 57.1195 1742.8 48.8408C1723.92 46.892 1704.47 45.3815 1686.17 52.0225C1677.21 55.3102 1669.13 62.8622 1667.54 72.6788C1665.82 82.3628 1668.18 91.5363 1671.64 100.886C1685.23 138.49 1656.36 174.022 1632.16 201.076C1606.35 229.025 1577.25 253.714 1549.07 279.297C1521.46 304.989 1491.33 330.458 1474.06 364.688C1465.27 381.604 1465.92 404.274 1479.4 418.266C1492.2 432.625 1509.62 441.143 1527.69 448.468C1554.24 458.684 1587.21 466.984 1611.36 447.964C1634.62 427.513 1629.38 392.117 1619.01 366.235C1596.5 311.962 1549.64 271.298 1498.97 244.105C1395.02 189.15 1271.88 187.033 1158.32 208.51C1016.09 233.686 841.757 251.571 737.281 133.041C696.403 91.7386 681.063 25.0017 624.22 2.13989C582.223 -10.3515 553.693 34.4438 542.181 69.2693C529.638 106.4 526.711 146.462 531.296 185.295C539.373 262.906 587.548 338.373 661.928 366.847C692.196 379.745 723.688 394.39 742.125 421.944C763.384 452.509 733.558 486.624 706.084 501.01C648.122 532.703 579.674 541.239 514.511 534.526C433.973 527.24 355.708 553.792 277.473 568.608C239.24 574.634 194.413 586.848 161.508 562.107C132.741 531.35 148.933 485.524 159.704 448.337C176.009 397.973 185.047 340.453 160.407 291.457C130.796 233.226 61.6007 210.099 0.00012207 207.565Z" fill="#E02F75"/>
</svg>
