<svg width="1916" height="591" viewBox="0 0 1916 591" fill="none" xmlns="http://www.w3.org/2000/svg">
<path d="M1924.76 12.6348C1924.92 11.6478 1925.08 10.6607 1925.24 9.6737C1884.32 3.71895 1842.5 0.71023 1800.96 0.788524C1729.21 3.1993 1639.47 4.63858 1597.81 72.8341C1575.28 113.229 1567.5 162.095 1534.41 195.128C1497.55 225.264 1446.24 218.358 1401.03 215.587C1339.47 210.622 1275.96 216.445 1218.25 239.107C1204.03 245.079 1189.81 252.403 1178.87 263.229C1167.07 273.644 1163.43 292.641 1174.18 305.021C1194.27 328.918 1225.26 339.263 1254.48 349.414C1273.53 355.893 1292.04 361.94 1308.15 373.9C1311.79 376.918 1315.52 380.37 1316.56 385.492C1317.56 390.376 1313.85 395.07 1310.2 397.818C1302.24 403.777 1292.87 406.907 1283.33 409.82C1245.48 420.361 1205.83 423.754 1166.59 425.93C1117.18 427.924 1066.93 428.507 1018.5 418.262C972.94 407.756 926.357 392.796 879.332 401.126C832.285 409.494 794.01 441.444 761.373 474.774C699.447 541.891 586.382 605.67 506.826 534.092C431.764 466.115 325.865 516.559 250.524 559.739C211.878 582.282 166.121 589.882 121.757 587.373C80.4601 584.969 39.5655 575.23 1.62363 559.192C1.20788 560.102 0.792125 561.011 0.376374 561.921C38.9251 577.996 79.9613 587.543 121.631 589.805C166.346 592.142 212.53 584.292 251.476 561.374C326.588 517.94 431.597 467.614 506.174 534.837C586.633 606.689 699.8 542.207 761.627 475.02C794.189 441.657 832.379 409.693 879.36 401.283C926.323 392.908 972.925 407.821 1018.5 418.303C1066.94 428.522 1117.18 427.923 1166.59 425.93C1205.83 423.753 1245.47 420.371 1283.34 409.847C1292.88 406.937 1302.26 403.813 1310.23 397.852C1313.88 395.104 1317.61 390.396 1316.61 385.483C1315.57 380.335 1311.84 376.877 1308.19 373.852C1292.07 361.869 1273.57 355.809 1254.52 349.309C1225.31 339.142 1194.32 328.731 1174.35 304.894C1163.68 292.545 1167.31 273.799 1179.07 263.424C1189.97 252.662 1204.18 245.368 1218.38 239.431C1276.05 216.896 1339.53 211.205 1400.97 216.311C1446.23 219.145 1497.53 226.414 1535.13 195.951C1568.81 162.436 1576.53 113.742 1599.19 73.533C1640.11 6.75213 1729.43 5.20202 1800.96 3.21362C1842.35 3.31365 1884.12 6.51746 1924.76 12.6348Z" fill="#F5720D"/>
</svg>
