<svg width="1920" height="598" viewBox="0 0 1920 598" fill="none" xmlns="http://www.w3.org/2000/svg">
<path d="M-1.91858 10.7908C-1.9729 10.462 -2.0271 10.1331 -2.08142 9.8042C38.8533 3.68588 80.759 0.559996 122.373 0.59757C194.099 2.8275 283.964 4.89285 324.73 73.1824C347.156 113.956 354.956 162.931 387.78 196.915C424.594 228.186 476.529 221.039 521.989 218.177C583.709 213.072 647.462 218.993 705.207 242.139C719.429 248.242 733.575 255.688 744.41 266.745C756.027 277.368 759.339 296.3 748.737 308.761C728.804 332.875 697.778 343.497 668.506 353.815C649.51 360.373 631.028 366.557 615.022 378.55C611.343 381.606 607.67 385.082 606.498 390.113C605.293 394.906 608.793 399.879 612.33 402.649C620.109 408.796 629.506 412.028 639.024 415.019C676.705 425.802 716.359 429.273 755.538 431.52C805.245 433.604 855.813 434.233 904.498 423.791C950.13 413.116 996.841 397.882 1043.95 406.48C1091.07 415.147 1129.09 447.591 1161.54 481.257C1222.94 549.063 1336.64 614.602 1416.39 541.674C1491.01 472.901 1597.17 524.161 1672.16 568.026C1710.72 590.955 1756.61 598.84 1801.05 596.376C1842.59 594.008 1883.63 584.153 1921.79 567.844C1921.93 568.146 1922.07 568.449 1922.21 568.751C1883.85 585.074 1842.76 594.866 1801.1 597.186C1756.53 599.594 1710.5 591.625 1671.84 568.569C1596.92 524.62 1491.07 473.403 1416.61 541.921C1336.55 614.944 1222.82 549.167 1161.46 481.338C1129.03 447.662 1091.04 415.214 1043.94 406.532C996.853 397.919 950.135 413.138 904.502 423.804C855.811 434.238 805.245 433.604 755.538 431.52C716.359 429.272 676.706 425.805 639.021 415.028C629.503 412.038 620.104 408.808 612.321 402.66C608.783 399.89 605.275 394.912 606.481 390.11C607.655 385.071 611.33 381.593 615.01 378.534C631.018 366.533 649.499 360.345 668.494 353.78C697.76 343.457 728.784 332.814 748.68 308.72C759.255 296.268 755.946 277.417 744.343 266.808C733.52 255.773 719.379 248.338 705.161 242.246C647.433 219.143 583.689 213.266 522.011 218.418C476.536 221.3 424.6 228.571 387.534 197.185C354.521 163.042 346.737 114.126 324.27 73.4127C283.741 5.59357 194.024 3.49636 122.371 1.40594C80.8108 1.42779 38.9202 4.61873 -1.91858 10.7908Z" fill="#AA0254"/>
</svg>
