<svg width="1920" height="467" viewBox="0 0 1920 467" fill="none" xmlns="http://www.w3.org/2000/svg">
<path d="M1922 168.581C1922 168.914 1922 169.248 1922 169.581C1865.11 172.117 1800.78 184.785 1765.05 232.791C1738.06 270.605 1746.45 321.143 1763.24 362.02C1770.4 380.055 1776.52 398.371 1777.07 417.454C1778.6 436.526 1766.53 456.321 1747.44 461.384C1710.36 471.86 1671.29 463.632 1634.02 458.174C1558.95 446.013 1483.83 426.532 1407.54 432.174C1345.48 437.276 1281.41 431.384 1223.28 408.318C1208.96 402.238 1194.68 394.8 1183.73 383.777C1171.94 373.178 1168.46 354.084 1179.2 341.569C1199.34 317.382 1230.56 306.81 1260.01 296.495C1325.39 276.783 1380.55 221.056 1390.3 152.465C1395.69 118.834 1392.12 83.3618 1377.75 52.281C1364.51 21.9323 1332.82 -6.8613 1297.78 2.73685C1236.12 22.5171 1215.74 93.4638 1162.45 126.271C1045.64 204.689 897.262 186.883 763.669 169.107C655.024 152.826 540.433 152.931 436.774 192.361C385.948 212.383 335.513 242.31 306.765 289.897C292.93 312.138 286.803 348.783 313.502 363.301C338.594 376.439 368.059 369.919 394.121 361.971C410.784 356.486 426.312 350.572 439.594 339.965C453.769 330.034 457.285 309.799 447.493 295.402C429.468 266.907 400.101 247.44 373.455 227.352C346.189 207.429 318.151 188.295 292.49 166.461C269.069 145.214 235.121 116.851 249.385 81.9529C253.468 73.1806 256.351 62.8332 251.175 54.4737C245.914 46.3434 235.731 43.3799 226.415 41.7112C207.144 38.6915 187.87 40.3522 168.607 42.5736C110.671 50.1452 53.6859 65.4553 -1.84691 82.5773C-1.94897 82.2599 -2.05103 81.9426 -2.15309 81.6253C53.461 64.5484 110.465 49.2953 168.509 41.7679C187.815 39.564 207.118 37.9084 226.542 40.9684C235.929 42.6734 246.293 45.6193 251.79 54.0894C257.171 62.8449 254.128 73.4115 250.016 82.2496C235.906 116.365 269.454 144.784 292.884 166.001C318.488 187.826 346.505 206.982 373.761 226.932C400.403 247.06 429.761 266.515 447.875 295.184C457.757 309.652 454.145 330.335 439.851 340.276C426.477 350.937 410.922 356.837 394.233 362.321C368.123 370.255 338.61 376.808 313.345 363.572C286.427 348.892 292.67 312.018 306.537 289.766C335.372 242.106 385.852 212.208 436.711 192.198C540.432 152.802 655.029 152.744 763.677 169.054C897.259 186.865 1045.64 204.689 1162.45 126.271C1215.74 93.463 1236.11 22.5175 1297.78 2.72577C1332.83 -6.87915 1364.52 21.9174 1377.77 52.2693C1392.16 83.3536 1395.73 118.831 1390.35 152.474C1380.62 221.085 1325.45 276.861 1260.05 296.606C1230.61 306.925 1199.39 317.53 1179.32 341.663C1168.64 354.147 1172.11 373.073 1183.86 383.652C1194.79 394.639 1209.05 402.065 1223.36 408.131C1281.45 431.148 1345.51 437.003 1407.51 431.863C1483.88 426.168 1559.04 445.609 1634.09 457.705C1671.34 463.14 1710.46 471.289 1747.26 460.843C1766.17 455.765 1777.94 436.406 1776.45 417.465C1775.89 398.531 1769.77 380.261 1762.61 362.273C1745.76 321.34 1737.2 270.529 1764.39 232.328C1800.41 183.888 1864.88 171.212 1922 168.581Z" fill="#F5720D"/>
</svg>
