<svg width="1920" height="598" viewBox="0 0 1920 598" fill="none" xmlns="http://www.w3.org/2000/svg">
<path d="M1919.92 10.7908C1919.97 10.462 1920.03 10.1331 1920.08 9.8042C1879.15 3.68588 1837.24 0.559996 1795.63 0.59757C1723.9 2.8275 1634.04 4.89285 1593.27 73.1824C1570.84 113.956 1563.04 162.931 1530.22 196.915C1493.41 228.186 1441.47 221.039 1396.01 218.177C1334.29 213.072 1270.54 218.993 1212.79 242.139C1198.57 248.242 1184.42 255.688 1173.59 266.745C1161.97 277.368 1158.66 296.3 1169.26 308.761C1189.2 332.875 1220.22 343.497 1249.49 353.815C1268.49 360.373 1286.97 366.557 1302.98 378.55C1306.66 381.606 1310.33 385.082 1311.5 390.113C1312.71 394.906 1309.21 399.879 1305.67 402.649C1297.89 408.796 1288.49 412.028 1278.98 415.019C1241.29 425.802 1201.64 429.273 1162.46 431.52C1112.76 433.604 1062.19 434.233 1013.5 423.791C967.87 413.116 921.159 397.882 874.051 406.48C826.927 415.147 788.907 447.591 756.457 481.257C695.064 549.063 581.364 614.602 501.61 541.674C426.992 472.901 320.832 524.161 245.839 568.026C207.276 590.955 161.393 598.84 116.945 596.376C75.4069 594.008 34.3708 584.153 -3.78944 567.844C-3.92981 568.146 -4.07019 568.449 -4.21056 568.751C34.1539 585.074 75.2384 594.866 116.903 597.186C161.47 599.594 207.498 591.625 246.161 568.569C321.078 524.62 426.934 473.403 501.39 541.921C581.448 614.944 695.184 549.167 756.543 481.338C788.968 447.662 826.959 415.214 874.061 406.532C921.147 397.919 967.865 413.138 1013.5 423.804C1062.19 434.238 1112.75 433.604 1162.46 431.52C1201.64 429.272 1241.29 425.805 1278.98 415.028C1288.5 412.038 1297.9 408.808 1305.68 402.66C1309.22 399.89 1312.72 394.912 1311.52 390.11C1310.35 385.071 1306.67 381.593 1302.99 378.534C1286.98 366.533 1268.5 360.345 1249.51 353.78C1220.24 343.457 1189.22 332.814 1169.32 308.72C1158.75 296.268 1162.05 277.417 1173.66 266.808C1184.48 255.773 1198.62 248.338 1212.84 242.246C1270.57 219.143 1334.31 213.266 1395.99 218.418C1441.46 221.3 1493.4 228.571 1530.47 197.185C1563.48 163.042 1571.26 114.126 1593.73 73.4127C1634.26 5.59357 1723.98 3.49636 1795.63 1.40594C1837.19 1.42779 1879.08 4.61873 1919.92 10.7908Z" fill="#AA0254"/>
</svg>
